<svg xmlns="http://www.w3.org/2000/svg" width="1200" height="630" viewBox="0 0 1200 630">
  <defs>
    <linearGradient id="bg" x1="0" y1="0" x2="1" y2="1">
      <stop offset="0" stop-color="#070A12"/>
      <stop offset="1" stop-color="#0B1020"/>
    </linearGradient>

    <radialGradient id="spot" cx="52%" cy="42%" r="65%">
      <stop offset="0" stop-color="#A78BFA" stop-opacity=".25"/>
      <stop offset="1" stop-color="#000" stop-opacity="0"/>
    </radialGradient>

    <linearGradient id="card" x1="0" y1="0" x2="1" y2="1">
      <stop offset="0" stop-color="#0B1224" stop-opacity=".92"/>
      <stop offset="1" stop-color="#0A1020" stop-opacity=".92"/>
    </linearGradient>

    <linearGradient id="violet" x1="0" y1="0" x2="1" y2="1">
      <stop offset="0" stop-color="#A78BFA"/>
      <stop offset="1" stop-color="#7C3AED"/>
    </linearGradient>

    <linearGradient id="gold" x1="0" y1="0" x2="1" y2="1">
      <stop offset="0" stop-color="#FDE68A"/>
      <stop offset="1" stop-color="#F59E0B"/>
    </linearGradient>

    <filter id="grain" x="-10%" y="-10%" width="120%" height="120%">
      <feTurbulence type="fractalNoise" baseFrequency="0.8" numOctaves="2" seed="6"/>
      <feColorMatrix type="matrix" values="
        1 0 0 0 0
        0 1 0 0 0
        0 0 1 0 0
        0 0 0 .12 0" />
    </filter>

    <filter id="glow" x="-30%" y="-30%" width="160%" height="160%">
      <feGaussianBlur stdDeviation="10" result="b"/>
      <feMerge>
        <feMergeNode in="b"/>
        <feMergeNode in="SourceGraphic"/>
      </feMerge>
    </filter>
  </defs>

  <rect width="1200" height="630" fill="url(#bg)"/>
  <rect width="1200" height="630" fill="url(#spot)"/>

  <g transform="translate(120,110)">
    <rect width="960" height="380" rx="28" fill="url(#card)" stroke="#FFFFFF" stroke-opacity=".08" stroke-width="2"/>
    <path d="M18 292C220 260 420 272 520 285C670 305 800 326 942 282V362H18Z" fill="#000" opacity=".22"/>
  </g>

  <!-- Ícone central: círculo zodiacal + estrela -->
  <g transform="translate(600,305)" filter="url(#glow)">
    <circle r="140" fill="#FFFFFF" opacity=".05"/>
    <circle r="118" fill="none" stroke="#FFFFFF" stroke-opacity=".12" stroke-width="2"/>

    <!-- anel zodiacal -->
    <circle r="96" fill="none" stroke="url(#violet)" stroke-width="10" stroke-linecap="round" opacity=".95"/>
    <!-- marcas -->
    <g stroke="#E5E7EB" stroke-opacity=".35" stroke-width="6" stroke-linecap="round">
      <path d="M0 -96V-78"/>
      <path d="M0 96V78"/>
      <path d="M96 0H78"/>
      <path d="M-96 0H-78"/>
      <path d="M68 -68l-14 14"/>
      <path d="M-68 -68l14 14"/>
      <path d="M68 68l-14 -14"/>
      <path d="M-68 68l14 -14"/>
    </g>

    <!-- constelação simples -->
    <g stroke="#E5E7EB" stroke-opacity=".28" stroke-width="4" fill="none" stroke-linecap="round">
      <path d="M-40 10L-10 -18L24 -2L48 -34"/>
    </g>
    <g fill="url(#gold)" opacity=".95">
      <circle cx="-40" cy="10" r="6"/>
      <circle cx="-10" cy="-18" r="6"/>
      <circle cx="24" cy="-2" r="6"/>
      <circle cx="48" cy="-34" r="6"/>
    </g>

    <!-- estrela central -->
    <path d="M0 -34l10 20 22 3-16 15 4 22-20-10-20 10 4-22-16-15 22-3z"
          fill="url(#gold)" opacity=".95"/>
  </g>

  <text x="90" y="545" fill="#E5E7EB" font-family="system-ui,Segoe UI,Roboto,Arial" font-weight="900" font-size="54">
    Astrologia
  </text>
  <text x="90" y="590" fill="#A7B0C0" font-family="system-ui,Segoe UI,Roboto,Arial" font-weight="650" font-size="24">
    mapa astral • sinastria • ascendente
  </text>

  <rect width="1200" height="630" filter="url(#grain)" opacity=".65"/>
</svg>