<svg xmlns="http://www.w3.org/2000/svg" width="1200" height="630" viewBox="0 0 1200 630">
  <defs>
    <linearGradient id="bg" x1="0" y1="0" x2="1" y2="1">
      <stop offset="0" stop-color="#070A12"/>
      <stop offset="1" stop-color="#0B1020"/>
    </linearGradient>

    <radialGradient id="halo" cx="50%" cy="42%" r="60%">
      <stop offset="0" stop-color="#FDE68A" stop-opacity=".35"/>
      <stop offset="1" stop-color="#000" stop-opacity="0"/>
    </radialGradient>

    <linearGradient id="card" x1="0" y1="0" x2="1" y2="1">
      <stop offset="0" stop-color="#0B1224" stop-opacity=".92"/>
      <stop offset="1" stop-color="#0A1020" stop-opacity=".92"/>
    </linearGradient>

    <filter id="grain" x="-10%" y="-10%" width="120%" height="120%">
      <feTurbulence type="fractalNoise" baseFrequency="0.8" numOctaves="2" seed="9"/>
      <feColorMatrix type="matrix" values="
        1 0 0 0 0
        0 1 0 0 0
        0 0 1 0 0
        0 0 0 .12 0" />
    </filter>

    <filter id="glow" x="-30%" y="-30%" width="160%" height="160%">
      <feGaussianBlur stdDeviation="10" result="b"/>
      <feMerge>
        <feMergeNode in="b"/>
        <feMergeNode in="SourceGraphic"/>
      </feMerge>
    </filter>

    <linearGradient id="gold" x1="0" y1="0" x2="1" y2="1">
      <stop offset="0" stop-color="#FDE68A"/>
      <stop offset="1" stop-color="#F59E0B"/>
    </linearGradient>

    <linearGradient id="aqua" x1="0" y1="0" x2="1" y2="1">
      <stop offset="0" stop-color="#22D3EE"/>
      <stop offset="1" stop-color="#2563EB"/>
    </linearGradient>

    <linearGradient id="ember" x1="0" y1="0" x2="1" y2="1">
      <stop offset="0" stop-color="#FB7185"/>
      <stop offset="1" stop-color="#EF4444"/>
    </linearGradient>
  </defs>

  <rect width="1200" height="630" fill="url(#bg)"/>
  <rect width="1200" height="630" fill="url(#halo)"/>

  <!-- cartão central -->
  <g transform="translate(120,110)">
    <rect width="960" height="380" rx="28" fill="url(#card)" stroke="#FFFFFF" stroke-opacity=".08" stroke-width="2"/>
    <path d="M18 290C210 250 380 260 480 270C630 285 780 300 942 250V362H18Z" fill="#000" opacity=".25"/>
  </g>

  <!-- elemento espiritual: vela + guias (contas) + estrela -->
  <g transform="translate(600,300)" filter="url(#glow)">
    <!-- aura -->
    <circle r="130" fill="#FFFFFF" opacity=".05"/>
    <circle r="110" fill="none" stroke="#FFFFFF" stroke-opacity=".12" stroke-width="2"/>

    <!-- vela (universal) -->
    <g transform="translate(-140,10)">
      <rect x="-34" y="-40" width="68" height="120" rx="16" fill="#E5E7EB" opacity=".92"/>
      <rect x="-34" y="35" width="68" height="45" rx="12" fill="#CBD5E1" opacity=".75"/>
      <!-- chama -->
      <path d="M0 -92C20 -62 18 -38 0 -24C-18 -38 -20 -62 0 -92Z" fill="url(#gold)"/>
      <path d="M0 -78C10 -60 10 -46 0 -38C-10 -46 -10 -60 0 -78Z" fill="#FFF7ED" opacity=".95"/>
    </g>

    <!-- guias/contas (remete à umbanda sem ser símbolo fechado) -->
    <g transform="translate(60,20)">
      <path d="M-120 30C-60 -20 20 -20 80 30" fill="none" stroke="#FFFFFF" stroke-opacity=".22" stroke-width="8" stroke-linecap="round"/>
      <!-- contas -->
      <g>
        <circle cx="-98" cy="14" r="10" fill="url(#aqua)"/>
        <circle cx="-72" cy="-2" r="10" fill="url(#gold)"/>
        <circle cx="-46" cy="-12" r="10" fill="url(#ember)"/>
        <circle cx="-20" cy="-16" r="10" fill="url(#aqua)"/>
        <circle cx="6" cy="-14" r="10" fill="url(#gold)"/>
        <circle cx="32" cy="-6" r="10" fill="url(#ember)"/>
        <circle cx="58" cy="8" r="10" fill="url(#aqua)"/>
      </g>
    </g>

    <!-- estrela (universal: fé/guia) -->
    <g transform="translate(170,-90)">
      <path d="M0 -36l9 18 20 3-14 13 3 20-18-9-18 9 3-20-14-13 20-3z"
            fill="url(#gold)" opacity=".9"/>
      <circle r="44" fill="none" stroke="#FFFFFF" stroke-opacity=".12" stroke-width="2"/>
    </g>
  </g>

  <!-- textos -->
  <text x="90" y="545" fill="#E5E7EB" font-family="system-ui,Segoe UI,Roboto,Arial" font-weight="900" font-size="54">
    Religiosidade
  </text>
  <text x="90" y="590" fill="#A7B0C0" font-family="system-ui,Segoe UI,Roboto,Arial" font-weight="650" font-size="24">
    umbanda • espiritualidade • fé
  </text>

  <rect width="1200" height="630" filter="url(#grain)" opacity=".65"/>
</svg>
